<svg width="292" height="57" viewBox="0 0 292 57" fill="none" xmlns="http://www.w3.org/2000/svg">
<path d="M71.74 51H67.78V41.54L62.5 51H58.32V35.6H62.28V45.06L67.56 35.6H71.74V51ZM90.0103 51H86.0503V44.73H80.5503V51H76.5903V35.6H80.5503V41.65H86.0503V35.6H90.0103V51ZM102.341 51H98.3806V38.68H93.7606V35.6H106.961V38.68H102.341V51ZM122.913 51H110.703V35.6H122.913V38.68H114.663V41.65H121.153V44.73H114.663V47.92H122.913V51ZM126.868 35.6H136.108C137.648 35.6 138.763 35.952 139.452 36.656C140.156 37.3453 140.508 38.46 140.508 40V42.2C140.508 43.74 140.156 44.862 139.452 45.566C138.763 46.2553 137.648 46.6 136.108 46.6H130.828V51H126.868V35.6ZM136.548 40C136.548 39.12 136.108 38.68 135.228 38.68H130.828V43.52H135.228C136.108 43.52 136.548 43.08 136.548 42.2V40ZM158.107 51H154.147V44.73H148.647V51H144.687V35.6H148.647V41.65H154.147V35.6H158.107V51ZM175.167 51H162.957V35.6H175.167V38.68H166.917V41.65H173.407V44.73H166.917V47.92H175.167V51ZM186.602 51H182.642V38.68H178.022V35.6H191.222V38.68H186.602V51ZM192.994 44.84V41.76H202.014V44.84H192.994ZM216.088 39.78C216.088 38.9 215.648 38.46 214.768 38.46H211.028C210.148 38.46 209.708 38.9 209.708 39.78V46.82C209.708 47.7 210.148 48.14 211.028 48.14H214.768C215.648 48.14 216.088 47.7 216.088 46.82V39.78ZM220.048 46.82C220.048 48.36 219.696 49.482 218.992 50.186C218.303 50.8753 217.188 51.22 215.648 51.22H210.148C208.608 51.22 207.486 50.8753 206.782 50.186C206.093 49.482 205.748 48.36 205.748 46.82V39.78C205.748 38.24 206.093 37.1253 206.782 36.436C207.486 35.732 208.608 35.38 210.148 35.38H215.648C217.188 35.38 218.303 35.732 218.992 36.436C219.696 37.1253 220.048 38.24 220.048 39.78V46.82ZM237.879 51H233.919V38.68H228.419V51H224.459V35.6H237.879V51ZM242.729 35.6H251.969C253.509 35.6 254.624 35.952 255.313 36.656C256.017 37.3453 256.369 38.46 256.369 40V42.2C256.369 43.74 256.017 44.862 255.313 45.566C254.624 46.2553 253.509 46.6 251.969 46.6H246.689V51H242.729V35.6ZM252.409 40C252.409 39.12 251.969 38.68 251.089 38.68H246.689V43.52H251.089C251.969 43.52 252.409 43.08 252.409 42.2V40ZM270.448 39.78C270.448 38.9 270.008 38.46 269.128 38.46H265.388C264.508 38.46 264.068 38.9 264.068 39.78V46.82C264.068 47.7 264.508 48.14 265.388 48.14H269.128C270.008 48.14 270.448 47.7 270.448 46.82V39.78ZM274.408 46.82C274.408 48.36 274.056 49.482 273.352 50.186C272.663 50.8753 271.548 51.22 270.008 51.22H264.508C262.968 51.22 261.846 50.8753 261.142 50.186C260.453 49.482 260.108 48.36 260.108 46.82V39.78C260.108 38.24 260.453 37.1253 261.142 36.436C261.846 35.732 262.968 35.38 264.508 35.38H270.008C271.548 35.38 272.663 35.732 273.352 36.436C274.056 37.1253 274.408 38.24 274.408 39.78V46.82ZM290.698 50.78C287.428 51.0733 284.714 51.22 282.558 51.22C281.121 51.22 280.065 50.8827 279.39 50.208C278.716 49.5333 278.378 48.4773 278.378 47.04V40C278.378 38.46 278.723 37.3453 279.412 36.656C280.116 35.952 281.238 35.6 282.778 35.6H290.698V38.68H283.658C282.778 38.68 282.338 39.12 282.338 40V47.04C282.338 47.3773 282.434 47.6487 282.624 47.854C282.83 48.0447 283.086 48.14 283.394 48.14C283.702 48.14 284.04 48.14 284.406 48.14C284.773 48.1253 285.154 48.1107 285.55 48.096C285.946 48.0813 286.342 48.0667 286.738 48.052C287.149 48.0373 287.67 48.008 288.3 47.964C288.946 47.92 289.745 47.8687 290.698 47.81V50.78Z" fill="#1A76DC"/>
<path d="M70.2 23.78C66.9293 24.0733 64.216 24.22 62.06 24.22C60.6227 24.22 59.5667 23.8827 58.892 23.208C58.2173 22.5333 57.88 21.4773 57.88 20.04V13C57.88 11.46 58.2247 10.3453 58.914 9.656C59.618 8.952 60.74 8.6 62.28 8.6H70.2V11.68H63.16C62.28 11.68 61.84 12.12 61.84 13V20.04C61.84 20.3773 61.9353 20.6487 62.126 20.854C62.3313 21.0447 62.588 21.14 62.896 21.14C63.204 21.14 63.5413 21.14 63.908 21.14C64.2747 21.1253 64.656 21.1107 65.052 21.096C65.448 21.0813 65.844 21.0667 66.24 21.052C66.6507 21.0373 67.1713 21.008 67.802 20.964C68.4473 20.92 69.2467 20.8687 70.2 20.81V23.78ZM87.5826 24H83.6226V11.68H78.1226V24H74.1626V8.6H87.5826V24ZM104.313 23.78C101.042 24.0733 98.3289 24.22 96.1729 24.22C94.7356 24.22 93.6796 23.8827 93.0049 23.208C92.3302 22.5333 91.9929 21.4773 91.9929 20.04V13C91.9929 11.46 92.3376 10.3453 93.0269 9.656C93.7309 8.952 94.8529 8.6 96.3929 8.6H104.313V11.68H97.2729C96.3929 11.68 95.9529 12.12 95.9529 13V20.04C95.9529 20.3773 96.0482 20.6487 96.2389 20.854C96.4442 21.0447 96.7009 21.14 97.0089 21.14C97.3169 21.14 97.6542 21.14 98.0209 21.14C98.3876 21.1253 98.7689 21.1107 99.1649 21.096C99.5609 21.0813 99.9569 21.0667 100.353 21.052C100.764 21.0373 101.284 21.008 101.915 20.964C102.56 20.92 103.36 20.8687 104.313 20.81V23.78Z" fill="#1A76DC"/>
<path d="M26.5072 20.7461C25.849 20.088 24.7792 20.0846 24.1177 20.7428L18.5624 26.3014L16.3822 24.1178C15.724 23.4596 14.6542 23.4596 13.996 24.1178C13.3379 24.7759 13.3379 25.8458 13.996 26.5039L17.371 29.8789C17.6984 30.2096 18.1304 30.375 18.5624 30.375C18.9944 30.375 19.4264 30.2096 19.7572 29.8823L26.5072 23.1323C27.1653 22.4741 27.1653 21.4043 26.5072 20.7461Z" fill="#33CB9E"/>
<path d="M26.5072 34.2461C25.849 33.588 24.7792 33.5846 24.1177 34.2427L18.5624 39.8014L16.3822 37.6211C15.724 36.963 14.6542 36.963 13.996 37.6211C13.3379 38.2793 13.3379 39.3491 13.996 40.0073L17.371 43.3823C17.6984 43.7096 18.1304 43.875 18.5624 43.875C18.9944 43.875 19.4264 43.7096 19.7572 43.3823L26.5072 36.6323C27.1653 35.9741 27.1653 34.9043 26.5072 34.2461Z" fill="#33CB9E"/>
<path d="M38.8125 23.625H32.0625C31.131 23.625 30.375 24.381 30.375 25.3125C30.375 26.244 31.131 27 32.0625 27H38.8125C39.744 27 40.5 26.244 40.5 25.3125C40.5 24.381 39.744 23.625 38.8125 23.625Z" fill="#33CB9E"/>
<path d="M38.8125 37.125H32.0625C31.131 37.125 30.375 37.881 30.375 38.8125C30.375 39.744 31.131 40.5 32.0625 40.5H38.8125C39.744 40.5 40.5 39.744 40.5 38.8125C40.5 37.881 39.744 37.125 38.8125 37.125Z" fill="#33CB9E"/>
<path d="M43.875 6.75H37.125V5.0625C37.125 4.131 36.369 3.375 35.4375 3.375H31.7756C31.077 1.41075 29.2005 0 27 0C24.7995 0 22.923 1.41075 22.2244 3.375H18.5625C17.631 3.375 16.875 4.131 16.875 5.0625V6.75H10.125C8.26538 6.75 6.75 8.26538 6.75 10.125V50.625C6.75 52.4846 8.26538 54 10.125 54H43.875C45.7346 54 47.25 52.4846 47.25 50.625V10.125C47.25 8.26538 45.7346 6.75 43.875 6.75ZM20.25 6.75H23.625C24.5565 6.75 25.3125 5.994 25.3125 5.0625C25.3125 4.131 26.0685 3.375 27 3.375C27.9315 3.375 28.6875 4.131 28.6875 5.0625C28.6875 5.994 29.4435 6.75 30.375 6.75H33.75V10.125H20.25V6.75ZM43.875 50.625H10.125V10.125H16.875V11.8125C16.875 12.744 17.631 13.5 18.5625 13.5H35.4375C36.369 13.5 37.125 12.744 37.125 11.8125V10.125H43.875V50.625Z" fill="#33CB9E"/>
</svg>
