<svg width="138" height="34" viewBox="0 0 138 34" fill="none" xmlns="http://www.w3.org/2000/svg">
<g clip-path="url(#clip0)">
<path d="M9.23999 26.56H8.61867L8.17933 26.9993L4.79999 30.3787V7.26999C4.79999 6.46492 5.46492 5.79999 6.26999 5.79999H30.03C30.8351 5.79999 31.5 6.46492 31.5 7.26999V25.09C31.5 25.8951 30.8351 26.56 30.03 26.56H9.23999Z" fill="white" stroke="#33CB9E" stroke-width="3"/>
<path d="M27.2609 9.6087L15.4239 21.087L10.0435 15.8696" stroke="#33CB9E" stroke-width="3" stroke-linecap="round" stroke-linejoin="round"/>
</g>
<path d="M44.926 25C44.5887 25 44.2953 24.8753 44.046 24.626C43.7967 24.3767 43.672 24.0833 43.672 23.746V10.194C43.672 9.85667 43.7967 9.56333 44.046 9.314C44.2953 9.06467 44.5887 8.94 44.926 8.94H54.826C55.1633 8.94 55.4567 9.06467 55.706 9.314C55.9553 9.56333 56.08 9.85667 56.08 10.194V23.746C56.08 24.0833 55.9553 24.3767 55.706 24.626C55.4567 24.8753 55.1633 25 54.826 25H53.572C53.2347 25 52.9413 24.8753 52.692 24.626C52.4573 24.3767 52.34 24.0833 52.34 23.746V12.13C52.34 12.0127 52.274 11.954 52.142 11.954H47.61C47.478 11.954 47.412 12.0127 47.412 12.13V23.746C47.412 24.0833 47.2873 24.3767 47.038 24.626C46.8033 24.8753 46.5173 25 46.18 25H44.926ZM74.05 16.97C74.05 13.5233 72.818 11.8 70.354 11.8C67.89 11.8 66.658 13.5233 66.658 16.97C66.658 20.4167 67.89 22.14 70.354 22.14C72.818 22.14 74.05 20.4167 74.05 16.97ZM75.854 23.042C74.5047 24.494 72.6714 25.22 70.354 25.22C68.0367 25.22 66.2034 24.494 64.854 23.042C63.5047 21.5753 62.83 19.5513 62.83 16.97C62.83 14.3887 63.5047 12.372 64.854 10.92C66.2034 9.45333 68.0367 8.72 70.354 8.72C72.6714 8.72 74.5047 9.45333 75.854 10.92C77.2034 12.372 77.878 14.3887 77.878 16.97C77.878 19.5513 77.2034 21.5753 75.854 23.042ZM84.6561 25.11C84.3334 25.154 84.0474 25.0587 83.7981 24.824C83.5488 24.5893 83.4241 24.3033 83.4241 23.966V23.548C83.4241 23.2107 83.5341 22.9173 83.7541 22.668C83.9888 22.404 84.2821 22.2207 84.6341 22.118C85.3381 21.9127 85.8148 21.4653 86.0641 20.776C86.3281 20.0867 86.4601 18.9133 86.4601 17.256V10.194C86.4601 9.85667 86.5848 9.56333 86.8341 9.314C87.0834 9.06467 87.3768 8.94 87.7141 8.94H96.5141C96.8514 8.94 97.1448 9.06467 97.3941 9.314C97.6434 9.56333 97.7681 9.85667 97.7681 10.194V23.746C97.7681 24.0833 97.6434 24.3767 97.3941 24.626C97.1448 24.8753 96.8514 25 96.5141 25H95.2601C94.9228 25 94.6294 24.8753 94.3801 24.626C94.1454 24.3767 94.0281 24.0833 94.0281 23.746V12.13C94.0281 12.0127 93.9621 11.954 93.8301 11.954H90.3981C90.2661 11.954 90.2001 12.0127 90.2001 12.13V17.19C90.2001 19.9473 89.7968 21.8907 88.9901 23.02C88.1834 24.1493 86.7388 24.846 84.6561 25.11ZM115.743 16.97C115.743 13.5233 114.511 11.8 112.047 11.8C109.583 11.8 108.351 13.5233 108.351 16.97C108.351 20.4167 109.583 22.14 112.047 22.14C114.511 22.14 115.743 20.4167 115.743 16.97ZM117.547 23.042C116.197 24.494 114.364 25.22 112.047 25.22C109.729 25.22 107.896 24.494 106.547 23.042C105.197 21.5753 104.523 19.5513 104.523 16.97C104.523 14.3887 105.197 12.372 106.547 10.92C107.896 9.45333 109.729 8.72 112.047 8.72C114.364 8.72 116.197 9.45333 117.547 10.92C118.896 12.372 119.571 14.3887 119.571 16.97C119.571 19.5513 118.896 21.5753 117.547 23.042ZM127.581 25C127.243 25 126.95 24.8753 126.701 24.626C126.451 24.3767 126.327 24.0833 126.327 23.746V10.194C126.327 9.85667 126.451 9.56333 126.701 9.314C126.95 9.06467 127.243 8.94 127.581 8.94H135.127C135.464 8.94 135.757 9.06467 136.007 9.314C136.256 9.56333 136.381 9.85667 136.381 10.194V10.81C136.381 11.1473 136.256 11.4407 136.007 11.69C135.757 11.9393 135.464 12.064 135.127 12.064H130.375C130.243 12.064 130.177 12.1227 130.177 12.24V23.746C130.177 24.0833 130.052 24.3767 129.803 24.626C129.568 24.8753 129.282 25 128.945 25H127.581Z" fill="#1A76DC"/>
<defs>
<clipPath id="clip0">
<rect width="33" height="33" fill="white" transform="translate(0 1)"/>
</clipPath>
</defs>
</svg>
